<svg width="43" height="42" viewBox="0 0 43 42" fill="none" xmlns="http://www.w3.org/2000/svg">
<mask id="path-1-inside-1_1624_2" fill="white">
<path d="M19.8764 2.69491C20.398 1.63809 20.6589 1.10968 21.013 0.940855C21.321 0.793966 21.6789 0.793966 21.987 0.940855C22.3411 1.10968 22.6019 1.63809 23.1236 2.69491L28.0727 12.7212C28.2267 13.0332 28.3037 13.1892 28.4162 13.3103C28.5159 13.4176 28.6354 13.5045 28.7681 13.5662C28.918 13.6359 29.0902 13.6611 29.4344 13.7114L40.5048 15.3295C41.6706 15.4999 42.2534 15.5851 42.5232 15.8698C42.7579 16.1175 42.8683 16.4579 42.8236 16.7963C42.7722 17.1851 42.3502 17.5961 41.5063 18.4181L33.4987 26.2175C33.2491 26.4607 33.1242 26.5822 33.0437 26.7269C32.9724 26.8549 32.9267 26.9956 32.909 27.1412C32.8891 27.3055 32.9185 27.4772 32.9774 27.8207L34.8669 38.837C35.0661 39.9989 35.1658 40.5798 34.9785 40.9246C34.8156 41.2245 34.526 41.4349 34.1904 41.4972C33.8046 41.5687 33.2829 41.2943 32.2395 40.7456L22.3428 35.541C22.0344 35.3788 21.8802 35.2977 21.7178 35.2659C21.574 35.2377 21.426 35.2377 21.2822 35.2659C21.1198 35.2977 20.9656 35.3788 20.6572 35.541L10.7605 40.7456C9.71706 41.2943 9.19536 41.5687 8.80961 41.4972C8.47399 41.4349 8.18438 41.2245 8.02145 40.9246C7.8342 40.5798 7.93384 39.9989 8.13312 38.837L10.0225 27.8207C10.0814 27.4772 10.1109 27.3055 10.091 27.1412C10.0733 26.9956 10.0276 26.8549 9.95627 26.7269C9.87573 26.5822 9.75092 26.4607 9.5013 26.2175L1.49372 18.4181C0.649743 17.5961 0.227756 17.1851 0.176406 16.7963C0.131728 16.4579 0.242103 16.1175 0.4768 15.8698C0.746549 15.5851 1.32943 15.4999 2.49519 15.3295L13.5656 13.7114C13.9098 13.6611 14.082 13.6359 14.2319 13.5662C14.3646 13.5045 14.4841 13.4176 14.5838 13.3103C14.6963 13.1892 14.7733 13.0332 14.9273 12.7212L19.8764 2.69491Z"/>
</mask>
<path d="M13.5656 13.7114L15.735 28.5537V28.5537L13.5656 13.7114ZM14.2319 13.5662L7.90694 -0.0350964V-0.0350963L14.2319 13.5662ZM14.9273 12.7212L1.47668 6.08186L1.47668 6.08186L14.9273 12.7212ZM14.5838 13.3103L25.5727 23.5202L14.5838 13.3103ZM1.49372 18.4181L-8.97228 29.1635H-8.97227L1.49372 18.4181ZM0.176406 16.7963L15.0473 14.8324L0.176406 16.7963ZM2.49519 15.3295L0.325764 0.487199L0.325764 0.487199L2.49519 15.3295ZM0.4768 15.8698L-10.4124 5.5535V5.5535L0.4768 15.8698ZM10.0225 27.8207L-4.76159 25.285L10.0225 27.8207ZM10.091 27.1412L24.9819 25.3355L10.091 27.1412ZM9.5013 26.2175L19.9673 15.4722V15.4722L9.5013 26.2175ZM9.95627 26.7269L23.0618 19.4299L9.95627 26.7269ZM10.7605 40.7456L17.7422 54.0217H17.7422L10.7605 40.7456ZM8.80961 41.4972L6.07555 56.2459L8.80961 41.4972ZM8.13312 38.837L22.9172 41.3726L8.13312 38.837ZM8.02145 40.9246L-5.15964 48.0841L8.02145 40.9246ZM22.3428 35.541L15.361 48.8171L22.3428 35.541ZM21.7178 35.2659L24.6045 20.5463L21.7178 35.2659ZM20.6572 35.541L13.6755 22.2649L13.6755 22.2649L20.6572 35.541ZM21.2822 35.2659L24.169 49.9855L21.2822 35.2659ZM34.8669 38.837L49.651 36.3013V36.3013L34.8669 38.837ZM34.9785 40.9246L21.7974 33.7651L34.9785 40.9246ZM32.2395 40.7456L39.2213 27.4695L32.2395 40.7456ZM34.1904 41.4972L31.4563 26.7484L34.1904 41.4972ZM33.4987 26.2175L43.9647 36.9629L33.4987 26.2175ZM33.0437 26.7269L46.1492 34.0239L33.0437 26.7269ZM32.9774 27.8207L18.1933 30.3563L32.9774 27.8207ZM32.909 27.1412L18.0181 25.3355L32.909 27.1412ZM40.5048 15.3295L42.6742 0.487199V0.487199L40.5048 15.3295ZM42.5232 15.8698L53.4123 5.5535V5.5535L42.5232 15.8698ZM41.5063 18.4181L31.0403 7.67278H31.0403L41.5063 18.4181ZM42.8236 16.7963L27.9527 14.8324L42.8236 16.7963ZM28.0727 12.7212L41.5233 6.08186V6.08186L28.0727 12.7212ZM28.4162 13.3103L17.4272 23.5202L28.4162 13.3103ZM29.4344 13.7114L27.265 28.5537L27.265 28.5537L29.4344 13.7114ZM28.7681 13.5662L35.093 -0.0350964L28.7681 13.5662ZM23.1236 2.69491L9.67299 9.33427L9.67299 9.33427L23.1236 2.69491ZM21.987 0.940855L28.4427 -12.5989L21.987 0.940855ZM19.8764 2.69491L33.327 9.33427V9.33427L19.8764 2.69491ZM21.013 0.940855L14.5573 -12.5989L21.013 0.940855ZM9.67299 9.33427L14.6221 19.3606L41.5233 6.08186L36.5742 -3.94445L9.67299 9.33427ZM27.265 28.5537L38.3354 30.1718L42.6742 0.487199L31.6038 -1.1309L27.265 28.5537ZM31.0403 7.67278L23.0327 15.4722L43.9647 36.9629L51.9723 29.1635L31.0403 7.67278ZM18.1933 30.3563L20.0827 41.3726L49.651 36.3013L47.7616 25.285L18.1933 30.3563ZM39.2213 27.4695L29.3245 22.2649L15.361 48.8171L25.2578 54.0217L39.2213 27.4695ZM13.6755 22.2649L3.77869 27.4695L17.7422 54.0217L27.639 48.8171L13.6755 22.2649ZM22.9172 41.3726L24.8067 30.3563L-4.76159 25.285L-6.65101 36.3013L22.9172 41.3726ZM19.9673 15.4722L11.9597 7.67278L-8.97227 29.1635L-0.964688 36.9629L19.9673 15.4722ZM4.66461 30.1718L15.735 28.5537L11.3961 -1.1309L0.325764 0.487199L4.66461 30.1718ZM28.3779 19.3606L33.327 9.33427L6.42577 -3.94445L1.47668 6.08186L28.3779 19.3606ZM15.735 28.5537C15.7491 28.5516 16.3535 28.4686 16.9582 28.3457C17.7222 28.1905 19.0403 27.8727 20.5568 27.1675L7.90694 -0.0350963C9.27355 -0.670603 10.4306 -0.940961 10.985 -1.0536C11.2427 -1.10597 11.4292 -1.13521 11.4625 -1.14045C11.493 -1.14524 11.5054 -1.14687 11.3961 -1.1309L15.735 28.5537ZM1.47668 6.08186C1.4278 6.18089 1.43319 6.16957 1.44712 6.1421C1.46239 6.112 1.54769 5.94363 1.67697 5.71458C1.95502 5.22192 2.56891 4.20457 3.59476 3.10043L25.5727 23.5202C26.7111 22.295 27.4198 21.1391 27.803 20.4601C28.1063 19.9227 28.3716 19.3734 28.3779 19.3606L1.47668 6.08186ZM20.5568 27.1675C22.449 26.2876 24.1524 25.049 25.5727 23.5202L3.59476 3.10043C4.81582 1.78621 6.28026 0.72135 7.90694 -0.0350964L20.5568 27.1675ZM11.9597 7.67278C11.7219 7.44111 11.636 7.35689 11.5841 7.30459C11.5246 7.24463 11.6903 7.40655 11.9355 7.69321C12.1619 7.95777 12.747 8.66204 13.3424 9.71505C13.9729 10.8301 14.7483 12.5686 15.0473 14.8324L-14.6945 18.7601C-14.0711 23.4805 -11.4694 26.4839 -10.8599 27.1963C-10.0919 28.0939 -9.18002 28.9612 -8.97228 29.1635L11.9597 7.67278ZM0.325764 0.487199C0.0388171 0.529141 -1.20845 0.696315 -2.35702 0.972505C-3.2686 1.19171 -7.1377 2.09701 -10.4124 5.5535L11.366 26.1861C9.79547 27.8438 8.14749 28.7965 6.98261 29.3294C5.88259 29.8327 4.99553 30.0596 4.657 30.141C4.2902 30.2292 4.06102 30.2631 4.14441 30.2495C4.21715 30.2376 4.33607 30.2198 4.66461 30.1718L0.325764 0.487199ZM15.0473 14.8324C15.5948 18.9785 14.2422 23.1502 11.366 26.1861L-10.4124 5.5535C-13.758 9.08488 -15.3314 13.9374 -14.6945 18.7601L15.0473 14.8324ZM24.8067 30.3563C24.8091 30.3422 24.9175 29.7411 24.9881 29.1273C25.0773 28.3518 25.1835 26.9982 24.9819 25.3355L-4.79996 28.9468C-4.98164 27.4485 -4.88019 26.2629 -4.81549 25.7003C-4.78541 25.4387 -4.75541 25.2521 -4.75007 25.2188C-4.74519 25.1883 -4.74289 25.176 -4.76159 25.285L24.8067 30.3563ZM-0.964689 36.9629C-0.885471 37.0401 -0.894569 37.0315 -0.916407 37.0097C-0.940331 36.9859 -1.07432 36.8527 -1.2525 36.6588C-1.63569 36.2418 -2.41499 35.3426 -3.14922 34.0239L23.0618 19.4299C22.247 17.9666 21.365 16.9342 20.8369 16.3595C20.4188 15.9046 19.9776 15.4822 19.9673 15.4722L-0.964689 36.9629ZM24.9819 25.3355C24.7304 23.2612 24.0783 21.2555 23.0618 19.4299L-3.14922 34.0239C-4.02311 32.4544 -4.58372 30.7301 -4.79996 28.9468L24.9819 25.3355ZM3.77869 27.4695C3.48465 27.6241 3.37787 27.6798 3.31193 27.7131C3.23635 27.7512 3.44145 27.6438 3.7898 27.4992C4.11123 27.3659 4.962 27.0272 6.1477 26.7866C7.40326 26.5318 9.29718 26.332 11.5437 26.7484L6.07555 56.2459C10.7592 57.1141 14.4218 55.5677 15.287 55.2087C16.3783 54.7559 17.4852 54.1568 17.7422 54.0217L3.77869 27.4695ZM-6.65101 36.3013C-6.7001 36.5875 -6.9276 37.8254 -7.02086 39.0032C-7.09481 39.9371 -7.43325 43.8983 -5.15964 48.0841L21.2026 33.7651C22.2931 35.7728 22.6885 37.6357 22.8343 38.9085C22.9721 40.1105 22.913 41.0243 22.8855 41.3713C22.8558 41.7472 22.817 41.9755 22.8299 41.8918C22.8412 41.8188 22.8611 41.7001 22.9172 41.3726L-6.65101 36.3013ZM11.5437 26.7484C15.6568 27.5109 19.2059 30.0892 21.2025 33.7651L-5.15964 48.0841C-2.83717 52.3599 1.29122 55.359 6.07555 56.2459L11.5437 26.7484ZM29.3245 22.2649C29.3119 22.2582 28.7738 21.9693 28.2119 21.7124C27.5021 21.388 26.2479 20.8686 24.6045 20.5463L18.831 49.9855C17.3501 49.6951 16.2541 49.2321 15.7391 48.9967C15.4997 48.8872 15.3316 48.801 15.3015 48.7856C15.2741 48.7716 15.2631 48.7656 15.361 48.8171L29.3245 22.2649ZM27.639 48.8171C27.7369 48.7656 27.7259 48.7716 27.6984 48.7856C27.6684 48.801 27.5003 48.8872 27.2608 48.9967C26.7458 49.2321 25.6498 49.6951 24.169 49.9855L18.3955 20.5463C16.7521 20.8686 15.4979 21.388 14.7881 21.7124C14.2262 21.9693 13.6881 22.2582 13.6755 22.2649L27.639 48.8171ZM24.6045 20.5463C22.5544 20.1442 20.4456 20.1442 18.3955 20.5463L24.169 49.9855C22.4064 50.3311 20.5936 50.3311 18.831 49.9855L24.6045 20.5463ZM20.0827 41.3726C20.1389 41.7001 20.1588 41.8188 20.1701 41.8918C20.183 41.9755 20.1442 41.7472 20.1145 41.3713C20.087 41.0243 20.0279 40.1105 20.1656 38.9085C20.3115 37.6357 20.7069 35.7728 21.7974 33.7651L48.1596 48.0841C50.4332 43.8983 50.0948 39.9371 50.0208 39.0032C49.9276 37.8254 49.7001 36.5875 49.651 36.3013L20.0827 41.3726ZM25.2578 54.0217C25.5147 54.1568 26.6217 54.7559 27.7129 55.2087C28.5782 55.5677 32.2408 57.1141 36.9244 56.2459L31.4563 26.7484C33.7028 26.332 35.5967 26.5318 36.8523 26.7866C38.038 27.0272 38.8888 27.3659 39.2102 27.4992C39.5585 27.6438 39.7636 27.7512 39.6881 27.7131C39.6221 27.6798 39.5153 27.6241 39.2213 27.4695L25.2578 54.0217ZM21.7974 33.7651C23.7941 30.0892 27.3432 27.5109 31.4563 26.7484L36.9244 56.2459C41.7088 55.359 45.8372 52.3599 48.1596 48.0841L21.7974 33.7651ZM23.0327 15.4722C23.0225 15.4821 22.5812 15.9046 22.1631 16.3595C21.635 16.9342 20.753 17.9665 19.9382 19.4299L46.1492 34.0239C45.415 35.3426 44.6356 36.2418 44.2524 36.6588C44.0743 36.8527 43.9403 36.9859 43.9164 37.0097C43.8945 37.0315 43.8854 37.0401 43.9647 36.9629L23.0327 15.4722ZM47.7616 25.285C47.7429 25.176 47.7452 25.1884 47.75 25.2188C47.7554 25.2521 47.7854 25.4387 47.8155 25.7003C47.8802 26.2629 47.9816 27.4485 47.7999 28.9468L18.0181 25.3355C17.8165 26.9982 17.9227 28.3518 18.0119 29.1272C18.0824 29.7411 18.1909 30.3422 18.1933 30.3563L47.7616 25.285ZM19.9382 19.4299C18.9217 21.2555 18.2696 23.2612 18.0181 25.3355L47.7999 28.9468C47.5837 30.7301 47.0231 32.4544 46.1492 34.0239L19.9382 19.4299ZM38.3354 30.1718C38.6639 30.2198 38.7828 30.2376 38.8556 30.2495C38.9389 30.2631 38.7098 30.2292 38.343 30.141C38.0044 30.0596 37.1174 29.8327 36.0173 29.3294C34.8525 28.7965 33.2045 27.8438 31.634 26.1861L53.4123 5.5535C50.1377 2.09702 46.2686 1.19172 45.357 0.972509C44.2084 0.696316 42.9612 0.529142 42.6742 0.487199L38.3354 30.1718ZM51.9723 29.1635C52.18 28.9612 53.0919 28.0939 53.8598 27.1963C54.4694 26.4839 57.0711 23.4805 57.6945 18.7601L27.9527 14.8324C28.2516 12.5686 29.0271 10.8301 29.6576 9.71506C30.253 8.66205 30.8381 7.95778 31.0645 7.69321C31.3097 7.40656 31.4754 7.24464 31.4159 7.30459C31.364 7.35689 31.2781 7.44111 31.0403 7.67278L51.9723 29.1635ZM31.634 26.1861C28.7578 23.1502 27.4052 18.9785 27.9527 14.8324L57.6945 18.7601C58.3313 13.9374 56.7579 9.08486 53.4123 5.5535L31.634 26.1861ZM14.6221 19.3606C14.6284 19.3733 14.8937 19.9227 15.197 20.4601C15.5802 21.139 16.2888 22.295 17.4272 23.5202L39.4052 3.10043C40.4311 4.20459 41.045 5.22195 41.323 5.71461C41.4523 5.94365 41.5376 6.11203 41.5529 6.14212C41.5668 6.16958 41.5722 6.18089 41.5233 6.08186L14.6221 19.3606ZM31.6039 -1.1309C31.4946 -1.14687 31.507 -1.14524 31.5374 -1.14045C31.5708 -1.13521 31.7572 -1.10597 32.015 -1.0536C32.5694 -0.940963 33.7264 -0.670605 35.093 -0.0350963L22.4432 27.1675C23.9597 27.8727 25.2778 28.1905 26.0418 28.3457C26.6465 28.4686 27.2509 28.5516 27.265 28.5537L31.6039 -1.1309ZM17.4272 23.5202C18.8476 25.049 20.551 26.2876 22.4432 27.1675L35.093 -0.0350964C36.7197 0.72135 38.1842 1.78621 39.4052 3.10043L17.4272 23.5202ZM36.5742 -3.94445C36.4458 -4.20466 35.9022 -5.33977 35.2853 -6.34731C34.796 -7.14656 32.7416 -10.5492 28.4427 -12.5989L15.5314 14.4806C13.4695 13.4975 12.0549 12.2232 11.1887 11.2793C10.3707 10.3879 9.88139 9.61395 9.69964 9.31708C9.50269 8.9954 9.39984 8.78789 9.43855 8.8631C9.47231 8.92871 9.52598 9.03644 9.67299 9.33427L36.5742 -3.94445ZM33.327 9.33427C33.474 9.03644 33.5277 8.92871 33.5614 8.8631C33.6001 8.78789 33.4973 8.99539 33.3003 9.31708C33.1186 9.61394 32.6292 10.3879 31.8113 11.2793C30.9451 12.2232 29.5304 13.4975 27.4686 14.4806L14.5573 -12.5989C10.2584 -10.5492 8.20399 -7.14655 7.71467 -6.34731C7.09782 -5.33977 6.55422 -4.20466 6.42577 -3.94445L33.327 9.33427ZM28.4427 -12.5989C24.051 -14.6928 18.9489 -14.6928 14.5573 -12.5989L27.4686 14.4806C23.6931 16.2807 19.3069 16.2807 15.5314 14.4806L28.4427 -12.5989Z" fill="#FFAE00" mask="url(#path-1-inside-1_1624_2)"/>
</svg>
